<?xml version="1.0" standalone="no"?>
<!DOCTYPE svg PUBLIC "-//W3C//DTD SVG 20010904//EN"
 "http://www.w3.org/TR/2001/REC-SVG-20010904/DTD/svg10.dtd">
<svg version="1.0" xmlns="http://www.w3.org/2000/svg"
 width="800.000000pt" height="800.000000pt" viewBox="0 0 800.000000 800.000000"
 preserveAspectRatio="xMidYMid meet">

<g transform="translate(0.000000,800.000000) scale(0.100000,-0.100000)"
fill="#000000" stroke="none">
<path d="M2240 7563 c-97 -41 -152 -124 -153 -228 0 -67 16 -114 57 -162 16
-20 155 -110 337 -219 l310 -185 -65 -70 c-81 -88 -167 -201 -197 -258 -15
-29 -22 -62 -23 -100 -2 -192 185 -312 356 -228 47 23 69 44 131 125 175 226
375 369 631 451 229 74 463 79 706 15 121 -31 313 -125 417 -203 98 -74 225
-206 287 -300 107 -161 185 -371 203 -546 l9 -80 -1197 3 c-658 1 -1222 -1
-1253 -6 l-55 -9 -11 33 c-6 19 -30 53 -54 77 -97 100 -248 101 -349 3 -54
-52 -77 -115 -77 -207 l0 -67 -77 -46 c-43 -26 -97 -61 -121 -78 l-42 -32 -30
22 c-49 36 -728 303 -787 309 -81 9 -138 -12 -199 -71 -57 -56 -74 -97 -74
-182 0 -66 40 -146 91 -184 22 -15 176 -83 344 -150 168 -67 305 -125 305
-129 0 -3 -10 -22 -22 -41 -66 -107 -136 -273 -169 -404 -41 -157 -49 -249
-49 -548 l0 -288 -407 0 c-455 0 -452 0 -522 -71 -136 -135 -66 -378 119 -418
32 -7 194 -11 430 -11 l380 0 0 -129 c0 -139 25 -355 60 -516 31 -139 111
-376 171 -507 28 -60 50 -110 48 -112 -2 -2 -150 -61 -328 -132 -259 -103
-332 -136 -367 -167 -58 -51 -84 -108 -84 -183 1 -142 105 -248 245 -248 54 0
96 15 425 148 201 81 372 149 380 151 9 3 28 -13 50 -42 50 -68 229 -245 340
-337 598 -495 1412 -694 2178 -531 179 38 242 60 289 100 172 147 70 435 -154
435 -27 0 -102 -13 -168 -29 -66 -16 -142 -32 -170 -35 -27 -4 -58 -9 -67 -12
-17 -5 -18 56 -20 1069 l-3 1074 -30 49 c-101 163 -329 163 -430 0 l-30 -49
-3 -1073 -2 -1073 -38 5 c-334 46 -700 199 -983 414 -105 80 -299 275 -381
382 -226 297 -366 644 -418 1031 -6 47 -10 335 -10 727 0 607 1 654 20 741 46
217 131 377 287 535 152 156 322 248 542 294 90 19 136 20 1231 20 1095 0
1141 -1 1231 -20 217 -46 377 -131 535 -287 158 -154 256 -337 298 -558 16
-81 17 -157 13 -780 -4 -747 -2 -720 -64 -965 -78 -311 -244 -614 -482 -880
-85 -96 -110 -145 -111 -216 0 -78 25 -136 79 -187 53 -50 99 -67 177 -67 83
0 135 34 249 160 55 61 104 108 110 105 5 -2 174 -71 375 -152 329 -132 371
-147 425 -147 140 0 244 106 245 248 0 75 -26 132 -84 183 -35 31 -108 64
-367 167 -178 71 -325 130 -327 131 -2 2 17 47 42 102 158 352 236 693 236
1036 l0 127 380 0 c236 0 398 4 430 11 185 40 255 283 119 418 -70 71 -67 71
-521 71 l-408 0 0 288 c0 299 -8 391 -49 548 -33 131 -103 297 -169 404 -12
19 -22 38 -22 41 0 4 137 62 305 129 168 67 322 135 344 150 51 38 91 118 91
184 0 83 -17 124 -73 181 -61 60 -118 81 -200 72 -59 -6 -738 -273 -787 -309
l-30 -22 -42 32 c-24 17 -77 52 -119 78 l-76 46 -7 142 c-14 303 -71 525 -197
766 -57 108 -184 287 -277 389 l-63 69 313 189 c342 206 366 226 387 323 14
66 -1 135 -42 197 -59 87 -181 126 -283 89 -22 -7 -216 -120 -432 -250 l-394
-236 -112 44 c-219 87 -403 120 -666 120 -239 1 -419 -35 -641 -125 l-97 -40
-393 237 c-217 130 -411 243 -433 250 -50 18 -131 17 -176 -3z"/>
</g>
</svg>
