<?xml version="1.0" standalone="no"?>
<!DOCTYPE svg PUBLIC "-//W3C//DTD SVG 20010904//EN"
 "http://www.w3.org/TR/2001/REC-SVG-20010904/DTD/svg10.dtd">
<svg version="1.0" xmlns="http://www.w3.org/2000/svg"
 width="800.000000pt" height="800.000000pt" viewBox="0 0 800.000000 800.000000"
 preserveAspectRatio="xMidYMid meet">

<g transform="translate(0.000000,800.000000) scale(0.100000,-0.100000)"
fill="#000000" stroke="none">
<path d="M3850 7316 c-76 -19 -116 -34 -180 -70 -67 -36 -206 -173 -245 -240
-149 -257 -112 -579 93 -798 l44 -48 -217 -507 c-255 -595 -330 -753 -386
-817 -59 -66 -107 -89 -205 -94 -79 -4 -84 -3 -152 32 -38 21 -121 76 -183
123 -96 72 -486 379 -512 403 -5 4 5 34 21 67 53 104 66 165 66 303 0 114 -2
133 -30 210 -70 198 -235 361 -426 422 -92 29 -254 35 -352 13 -226 -50 -413
-223 -492 -455 -29 -84 -27 -300 3 -395 44 -139 155 -282 278 -360 33 -21 61
-39 62 -39 1 -1 146 -864 322 -1919 292 -1752 322 -1921 347 -1967 33 -61 84
-109 156 -147 l53 -28 2085 0 2085 0 53 28 c71 37 123 86 155 144 23 44 60
255 347 1968 176 1055 322 1920 323 1921 1 0 29 18 62 39 121 76 233 220 276
355 30 93 37 254 14 354 -54 244 -256 447 -501 501 -98 22 -260 16 -352 -13
-191 -61 -365 -233 -429 -427 -23 -69 -27 -97 -27 -205 0 -138 13 -198 66
-303 16 -33 26 -63 21 -67 -26 -24 -416 -331 -512 -403 -62 -47 -144 -102
-181 -121 -59 -31 -77 -36 -136 -36 -121 1 -189 38 -255 139 -51 78 -144 281
-389 853 l-183 427 45 49 c204 218 242 543 94 796 -73 125 -233 253 -371 296
-87 28 -272 36 -355 16z m249 -2059 c245 -576 324 -728 461 -884 103 -117 266
-218 436 -269 73 -22 114 -27 234 -31 132 -4 154 -2 245 21 175 45 332 134
585 330 69 53 126 93 128 88 1 -5 -103 -644 -233 -1420 -129 -777 -235 -1414
-235 -1417 0 -3 -774 -5 -1720 -5 -946 0 -1720 2 -1720 5 0 3 -106 640 -235
1417 -130 776 -234 1415 -233 1420 2 5 59 -35 128 -88 252 -196 410 -285 585
-330 91 -23 113 -25 245 -21 172 5 270 30 414 104 202 105 343 263 473 533 55
114 193 426 289 652 27 65 51 118 54 118 3 0 47 -100 99 -223z"/>
</g>
</svg>
