<?xml version="1.0" standalone="no"?>
<!DOCTYPE svg PUBLIC "-//W3C//DTD SVG 20010904//EN"
 "http://www.w3.org/TR/2001/REC-SVG-20010904/DTD/svg10.dtd">
<svg version="1.0" xmlns="http://www.w3.org/2000/svg"
 width="800.000000pt" height="800.000000pt" viewBox="0 0 800.000000 800.000000"
 preserveAspectRatio="xMidYMid meet">

<g transform="translate(0.000000,800.000000) scale(0.100000,-0.100000)"
fill="#000000" stroke="none">
<path d="M3418 7565 c-417 -27 -767 -70 -1107 -136 -214 -41 -291 -64 -395
-115 -216 -107 -367 -277 -439 -494 -24 -72 -45 -181 -50 -264 l-2 -39 -125
-43 c-394 -137 -477 -172 -586 -249 -125 -89 -211 -211 -254 -360 -35 -122
-42 -244 -38 -635 5 -425 10 -465 80 -610 33 -68 57 -101 122 -166 44 -44 112
-100 150 -125 37 -24 312 -179 610 -345 l541 -300 39 -70 c133 -235 265 -413
423 -571 355 -354 795 -558 1310 -608 l71 -7 -9 -31 c-5 -18 -9 -170 -9 -339
l0 -308 -274 0 c-388 0 -455 -19 -612 -175 -82 -81 -120 -145 -149 -244 -11
-38 -85 -390 -85 -405 0 -3 -156 -6 -347 -8 -335 -3 -350 -4 -389 -25 -94 -50
-139 -124 -139 -228 1 -84 24 -136 85 -188 78 -66 -66 -62 2160 -62 2226 0
2082 -4 2160 62 61 52 84 104 85 188 0 104 -45 178 -139 228 -39 21 -54 22
-388 25 -192 2 -348 5 -348 7 0 10 -81 395 -89 420 -39 130 -168 283 -292 344
-111 55 -154 60 -461 61 l-278 0 0 308 c0 169 -4 321 -9 339 l-9 31 71 7 c750
72 1349 479 1731 1177 43 79 -24 37 646 408 261 144 514 289 562 322 167 114
260 240 310 423 21 77 22 98 23 515 0 473 -3 504 -60 655 -36 96 -76 155 -155
228 -119 109 -210 154 -565 277 l-220 76 -2 40 c-14 219 -83 397 -216 553
-135 157 -309 247 -586 306 -96 20 -147 19 -201 -6 -60 -27 -98 -64 -126 -124
-49 -104 -20 -229 70 -297 45 -35 58 -40 216 -78 292 -70 362 -200 346 -645
-38 -1074 -171 -1782 -436 -2320 -210 -427 -465 -694 -822 -859 -246 -114
-501 -166 -818 -166 -678 0 -1178 262 -1514 795 -328 520 -502 1259 -553 2355
-23 498 -7 617 96 720 95 95 220 131 716 204 468 69 849 91 1393 81 624 -12
591 -13 638 12 124 66 173 210 111 334 -29 58 -87 109 -147 127 -100 31 -936
41 -1322 17z m-1978 -1647 c0 -85 33 -468 55 -648 32 -255 95 -599 141 -769
14 -51 24 -95 22 -97 -3 -3 -289 155 -501 276 -89 51 -171 113 -199 150 -30
41 -38 130 -38 443 -1 323 3 396 27 470 24 75 85 110 378 216 119 43 115 44
115 -41z m5253 33 c227 -78 335 -136 356 -190 5 -14 15 -50 20 -79 15 -72 14
-715 0 -783 -21 -97 -69 -133 -509 -378 -118 -66 -216 -118 -218 -117 -1 2 9
45 23 97 46 175 109 518 140 769 22 180 55 563 55 648 0 42 4 72 10 72 6 0 61
-18 123 -39z m-1922 -4714 c26 -20 36 -47 58 -162 12 -60 25 -120 28 -132 l5
-23 -861 0 c-474 0 -861 2 -861 4 0 3 12 62 26 133 27 132 36 160 63 180 23
18 1519 18 1542 0z"/>
</g>
</svg>
