<?xml version="1.0" standalone="no"?>
<!DOCTYPE svg PUBLIC "-//W3C//DTD SVG 20010904//EN"
 "http://www.w3.org/TR/2001/REC-SVG-20010904/DTD/svg10.dtd">
<svg version="1.0" xmlns="http://www.w3.org/2000/svg"
 width="800.000000pt" height="800.000000pt" viewBox="0 0 800.000000 800.000000"
 preserveAspectRatio="xMidYMid meet">

<g transform="translate(0.000000,800.000000) scale(0.100000,-0.100000)"
fill="#000000" stroke="none">
<path d="M2605 7735 c-207 -46 -391 -176 -498 -351 -47 -78 -95 -222 -103
-312 l-7 -72 -157 0 c-300 0 -463 -62 -632 -238 -84 -89 -134 -171 -174 -292
l-29 -85 0 -2760 0 -2760 28 -85 c75 -222 224 -385 433 -473 143 -60 -5 -57
2533 -57 2092 0 2327 2 2397 16 273 56 480 242 571 514 l28 85 3 709 c3 800 6
769 -72 849 -98 101 -254 101 -352 0 -76 -78 -74 -53 -74 -799 0 -645 -1 -665
-21 -718 -13 -37 -34 -67 -61 -90 -83 -71 117 -66 -2418 -66 -2535 0 -2335 -5
-2418 66 -27 23 -48 53 -61 90 l-21 55 0 2664 0 2664 21 55 c13 37 34 67 61
90 63 55 111 66 273 66 l142 0 7 -72 c8 -90 56 -234 103 -312 51 -84 154 -189
240 -245 42 -28 115 -63 171 -82 l97 -34 1385 0 1385 0 97 34 c56 19 129 54
171 82 86 56 189 161 240 245 47 78 95 222 103 312 l7 72 142 0 c162 0 210
-11 273 -66 27 -23 48 -53 61 -90 19 -51 21 -76 21 -343 0 -332 4 -357 77
-427 100 -97 246 -97 347 0 75 73 78 93 74 478 l-4 333 -28 85 c-40 121 -88
202 -174 291 -169 178 -331 239 -630 239 l-159 0 -7 72 c-8 90 -56 234 -103
312 -51 84 -154 189 -240 245 -42 28 -115 63 -171 82 l-97 34 -1360 2 c-1100
1 -1371 -1 -1420 -12z m2733 -505 c74 -34 103 -60 133 -124 l29 -61 0 -295 c0
-271 -2 -298 -20 -338 -34 -74 -60 -103 -124 -133 l-61 -29 -1295 0 -1295 0
-61 29 c-64 30 -90 59 -124 133 -18 40 -20 67 -20 338 l0 295 29 61 c30 64 59
90 133 124 42 19 73 20 1338 20 1265 0 1296 -1 1338 -20z"/>
<path d="M6667 4984 c-52 -16 -115 -71 -142 -125 -46 -88 -23 -212 51 -285
101 -97 247 -97 347 0 100 97 101 248 3 349 -69 71 -158 92 -259 61z"/>
<path d="M5690 4744 c-91 -33 39 108 -1935 -2097 -137 -152 -252 -276 -257
-275 -4 2 -255 247 -557 545 -541 534 -550 542 -607 559 -105 31 -212 -9 -279
-104 -25 -37 -30 -54 -33 -118 -7 -130 -32 -100 685 -816 566 -565 645 -640
697 -664 48 -22 67 -25 109 -21 112 14 56 -44 1289 1327 632 701 1156 1291
1165 1310 24 49 29 155 9 202 -22 51 -71 105 -119 130 -40 20 -137 33 -167 22z"/>
<path d="M6661 3983 c-58 -20 -125 -90 -145 -150 -24 -71 -24 -846 1 -918 31
-91 135 -165 233 -165 98 0 202 74 233 165 25 72 25 847 1 918 -44 128 -191
197 -323 150z"/>
</g>
</svg>
