<?xml version="1.0" standalone="no"?>
<!DOCTYPE svg PUBLIC "-//W3C//DTD SVG 20010904//EN"
 "http://www.w3.org/TR/2001/REC-SVG-20010904/DTD/svg10.dtd">
<svg version="1.0" xmlns="http://www.w3.org/2000/svg"
 width="800.000000pt" height="800.000000pt" viewBox="0 0 800.000000 800.000000"
 preserveAspectRatio="xMidYMid meet">

<g transform="translate(0.000000,800.000000) scale(0.100000,-0.100000)"
fill="#000000" stroke="none">
<path d="M1220 6985 c-144 -25 -255 -81 -353 -179 -106 -106 -166 -226 -187
-372 -8 -57 -10 -653 -8 -2149 3 -1940 4 -2074 21 -2130 66 -225 240 -399 462
-462 53 -15 153 -17 860 -23 886 -8 833 -4 975 -75 36 -18 243 -151 460 -296
217 -145 418 -271 445 -281 61 -21 136 -23 199 -4 30 9 199 115 455 285 225
149 435 284 467 300 136 67 89 63 969 71 715 6 806 8 860 24 255 73 433 275
475 536 14 91 14 4121 -1 4209 -32 199 -151 375 -316 467 -158 89 -203 94
-838 94 -788 -1 -1051 -17 -1298 -79 -222 -56 -396 -144 -587 -297 -67 -53
-205 -192 -253 -254 l-27 -35 -27 35 c-48 62 -186 201 -253 254 -315 252 -599
342 -1152 366 -334 14 -1255 11 -1348 -5z m1395 -665 c383 -20 553 -81 745
-270 193 -189 257 -338 291 -680 12 -124 26 -3410 15 -3410 -4 0 -53 31 -109
68 -219 146 -332 205 -473 247 -165 49 -136 48 -956 54 -427 3 -780 10 -785
14 -9 10 -17 3879 -8 3945 l6 42 547 0 c301 -1 628 -5 727 -10z m4050 -42 c9
-80 1 -3925 -8 -3935 -5 -4 -358 -11 -785 -14 -844 -6 -807 -4 -994 -66 -113
-37 -220 -94 -392 -207 -81 -53 -149 -96 -152 -96 -8 0 -3 2834 6 3130 12 402
33 544 99 687 98 209 312 407 517 478 178 62 325 71 1126 73 l577 2 6 -52z"/>
</g>
</svg>
