<?xml version="1.0" encoding="UTF-8"?>
<!DOCTYPE svg PUBLIC "-//W3C//DTD SVG 1.1//EN" "http://www.w3.org/Graphics/SVG/1.1/DTD/svg11.dtd">
<svg xmlns="http://www.w3.org/2000/svg" version="1.1" width="800px" height="800px" style="shape-rendering:geometricPrecision; text-rendering:geometricPrecision; image-rendering:optimizeQuality; fill-rule:evenodd; clip-rule:evenodd" xmlns:xlink="http://www.w3.org/1999/xlink">
<g><path style="opacity:0.981" fill="#fefffe" d="M 230.5,40.5 C 236.535,40.592 242.201,42.092 247.5,45C 273.083,60.3744 298.583,75.8744 324,91.5C 359.91,74.4074 397.41,69.9074 436.5,78C 449.651,80.7449 462.318,84.9115 474.5,90.5C 501.791,75.1869 528.791,59.3536 555.5,43C 570.773,38.0874 582.273,42.5874 590,56.5C 594.2,71.2562 589.7,82.4229 576.5,90C 557.798,100.679 539.464,111.846 521.5,123.5C 558.694,160.593 576.528,205.593 575,258.5C 583.016,263.34 590.682,268.674 598,274.5C 600.564,272.273 603.397,270.439 606.5,269C 624.913,261.862 643.246,254.529 661.5,247C 668.423,244.026 675.59,241.859 683,240.5C 702.736,243.567 710.736,254.901 707,274.5C 704.615,279.883 701.115,284.383 696.5,288C 675.914,296.463 655.247,304.63 634.5,312.5C 638.89,320.95 643.057,329.617 647,338.5C 653.836,355.845 657.503,373.845 658,392.5C 658.5,408.497 658.667,424.497 658.5,440.5C 685.884,440.035 713.218,440.535 740.5,442C 755.143,448.119 760.643,458.952 757,474.5C 753.816,483.342 747.649,488.842 738.5,491C 711.835,491.5 685.169,491.667 658.5,491.5C 659.367,535.504 650.034,577.171 630.5,616.5C 631.09,617.799 632.09,618.632 633.5,619C 654.994,627.276 676.327,635.942 697.5,645C 711.178,658.055 711.844,671.722 699.5,686C 692.914,690.812 685.581,692.479 677.5,691C 651.932,681.798 626.766,671.632 602,660.5C 595.571,668.933 588.404,676.766 580.5,684C 570.85,689.841 561.183,689.841 551.5,684C 539.051,672.426 537.551,659.592 547,645.5C 580.288,611.252 599.954,570.252 606,522.5C 607.983,475.164 607.983,427.831 606,380.5C 593.841,327.339 560.674,297.839 506.5,292C 435.167,291.333 363.833,291.333 292.5,292C 238.326,297.839 205.159,327.339 193,380.5C 191.403,422.815 191.07,465.148 192,507.5C 198.659,593.366 240.825,654.533 318.5,691C 336.521,698.397 355.187,703.23 374.5,705.5C 374.333,634.499 374.5,563.499 375,492.5C 382.815,474.889 395.649,470.056 413.5,478C 418.513,481.688 422.013,486.522 424,492.5C 424.5,563.499 424.667,634.499 424.5,705.5C 438.46,703.552 452.293,700.886 466,697.5C 483.98,700.14 492.314,710.473 491,728.5C 488.609,738.558 482.443,745.058 472.5,748C 382.901,771.017 302.234,753.684 230.5,696C 218.602,684.771 207.435,672.937 197,660.5C 173.426,670.915 149.593,680.748 125.5,690C 105.627,694.283 93.9598,686.449 90.5,666.5C 90.8785,654.628 96.5452,646.461 107.5,642C 128.223,634.156 148.556,625.656 168.5,616.5C 149.22,577.102 139.886,535.436 140.5,491.5C 113.831,491.667 87.1646,491.5 60.5,491C 48.5866,487.242 41.9199,479.075 40.5,466.5C 40.9664,454.209 46.9664,446.042 58.5,442C 85.7825,440.535 113.116,440.035 140.5,440.5C 140.333,424.497 140.5,408.497 141,392.5C 141.497,373.845 145.164,355.845 152,338.5C 155.943,329.617 160.11,320.95 164.5,312.5C 146.163,305.441 127.83,298.275 109.5,291C 91.3235,282.803 86.4902,269.636 95,251.5C 102.518,242.327 112.018,239.161 123.5,242C 146.612,250.723 169.612,259.723 192.5,269C 195.603,270.439 198.436,272.273 201,274.5C 208.318,268.674 215.984,263.34 224,258.5C 221.559,243.886 226.726,233.053 239.5,226C 256.073,221.121 267.406,226.621 273.5,242.5C 279.817,241.906 286.151,241.406 292.5,241C 363.833,240.333 435.167,240.333 506.5,241C 512.199,241.312 517.866,241.812 523.5,242.5C 519.002,192.198 494.002,156.364 448.5,135C 395.983,115.703 349.483,125.203 309,163.5C 302.858,171.61 296.358,179.443 289.5,187C 276.22,194.309 264.387,192.476 254,181.5C 249.404,173.61 248.404,165.277 251,156.5C 258.504,144.489 267.338,133.489 277.5,123.5C 257.321,110.836 236.988,98.3363 216.5,86C 207.982,77.7605 205.482,67.9272 209,56.5C 213.492,47.5006 220.658,42.1673 230.5,40.5 Z"/></g>
</svg>
