<?xml version="1.0" encoding="UTF-8"?>
<!DOCTYPE svg PUBLIC "-//W3C//DTD SVG 1.1//EN" "http://www.w3.org/Graphics/SVG/1.1/DTD/svg11.dtd">
<svg xmlns="http://www.w3.org/2000/svg" version="1.1" width="800px" height="800px" style="shape-rendering:geometricPrecision; text-rendering:geometricPrecision; image-rendering:optimizeQuality; fill-rule:evenodd; clip-rule:evenodd" xmlns:xlink="http://www.w3.org/1999/xlink">
<g><path style="opacity:0.987" fill="#fefffe" d="M 393.5,65.5 C 430.155,65.3351 453.988,82.6685 465,117.5C 468.414,134.681 466.08,151.014 458,166.5C 453.731,172.72 449.231,178.72 444.5,184.5C 460.446,223.061 476.946,261.394 494,299.5C 497.165,305.834 500.831,311.834 505,317.5C 516.89,327.088 529.39,327.921 542.5,320C 564.619,303.549 586.452,286.716 608,269.5C 604.567,261.579 601.9,253.246 600,244.5C 596.368,206.231 612.535,180.731 648.5,168C 686.001,160.667 712.835,174.167 729,208.5C 739.612,245.343 728.612,273.676 696,293.5C 675.001,419.497 654.001,545.497 633,671.5C 630.608,684.224 623.441,693.057 611.5,698C 471.543,699.66 331.543,699.993 191.5,699C 180.263,696.099 172.43,689.265 168,678.5C 145.795,550.271 124.129,421.938 103,293.5C 69.3024,272.736 58.6357,243.403 71,205.5C 88.0308,173.237 114.531,160.737 150.5,168C 186.47,180.743 202.637,206.243 199,244.5C 197.1,253.246 194.433,261.579 191,269.5C 212.548,286.716 234.381,303.549 256.5,320C 269.61,327.921 282.11,327.088 294,317.5C 298.169,311.834 301.835,305.834 305,299.5C 322.054,261.394 338.554,223.061 354.5,184.5C 349.769,178.72 345.269,172.72 341,166.5C 324.781,131.284 331.615,101.45 361.5,77C 371.454,70.8513 382.121,67.018 393.5,65.5 Z M 398.5,253.5 C 400.335,254.122 401.502,255.456 402,257.5C 414.118,288.733 428.118,319.066 444,348.5C 470.094,385.776 505.594,399.609 550.5,390C 562.84,385.663 574.507,379.996 585.5,373C 596.341,364.449 607.341,356.449 618.5,349C 602.5,443.333 586.5,537.667 570.5,632C 456.264,632.832 342.097,632.665 228,631.5C 212.43,537.245 196.596,443.078 180.5,349C 191.659,356.449 202.659,364.449 213.5,373C 250.186,398.183 287.852,399.849 326.5,378C 337.653,369.846 347.153,360.012 355,348.5C 371.523,317.764 386.023,286.098 398.5,253.5 Z"/></g>
</svg>
