<?xml version="1.0" encoding="UTF-8"?>
<!DOCTYPE svg PUBLIC "-//W3C//DTD SVG 1.1//EN" "http://www.w3.org/Graphics/SVG/1.1/DTD/svg11.dtd">
<svg xmlns="http://www.w3.org/2000/svg" version="1.1" width="800px" height="800px" style="shape-rendering:geometricPrecision; text-rendering:geometricPrecision; image-rendering:optimizeQuality; fill-rule:evenodd; clip-rule:evenodd" xmlns:xlink="http://www.w3.org/1999/xlink">
<g><path style="opacity:0.979" fill="#fefffe" d="M 386.5,40.5 C 413.516,40.7713 440.516,41.6047 467.5,43C 486.655,46.7963 494.155,58.2963 490,77.5C 483.986,90.4666 473.819,95.8 459.5,93.5C 379.402,88.2144 300.068,93.7144 221.5,110C 204.849,114.646 195.349,125.479 193,142.5C 191.419,204.108 196.752,265.108 209,325.5C 217.547,370.863 235.547,411.863 263,448.5C 292.654,482.579 330.154,501.745 375.5,506C 468.868,514.759 533.701,476.259 570,390.5C 589.649,337.258 600.982,282.258 604,225.5C 606.13,197.866 606.796,170.2 606,142.5C 604.471,128.932 597.638,119.098 585.5,113C 576.044,109.553 566.378,106.886 556.5,105C 541.756,96.4343 537.589,84.2677 544,68.5C 549.456,60.6869 556.956,56.3535 566.5,55.5C 587.636,58.0426 606.97,65.2093 624.5,77C 645.855,95.5464 657.188,119.046 658.5,147.5C 677.392,153.851 696.059,160.685 714.5,168C 732.787,176.288 745.621,189.788 753,208.5C 754.793,214.041 756.126,219.708 757,225.5C 758.966,255.502 758.966,285.502 757,315.5C 754.504,334.004 746.004,349.171 731.5,361C 725.5,365 719.5,369 713.5,373C 678.339,392.08 643.339,411.413 608.5,431C 589.716,466.792 564.049,496.792 531.5,521C 498.981,542.229 463.315,554.396 424.5,557.5C 424.474,579.321 424.474,601.321 424.5,623.5C 444.862,623.131 465.195,623.631 485.5,625C 504.831,630.326 518.665,642.159 527,660.5C 530.879,675.954 534.379,691.454 537.5,707C 560.167,707.333 582.833,707.667 605.5,708C 620.464,713.304 626.63,723.804 624,739.5C 620.952,749.882 614.119,756.049 603.5,758C 467.5,758.667 331.5,758.667 195.5,758C 184.881,756.049 178.048,749.882 175,739.5C 172.37,723.804 178.536,713.304 193.5,708C 216.164,707.5 238.831,707.333 261.5,707.5C 264.265,691.697 267.765,676.03 272,660.5C 280.311,642.187 294.144,630.354 313.5,625C 333.805,623.631 354.138,623.131 374.5,623.5C 374.526,601.321 374.526,579.321 374.5,557.5C 306.059,551.543 251.893,520.876 212,465.5C 204.458,454.252 197.291,442.752 190.5,431C 153.559,411.035 116.892,390.701 80.5,370C 55.7661,356.033 42.5994,334.866 41,306.5C 40.3333,282.833 40.3333,259.167 41,235.5C 41.4074,210.853 51.2407,191.019 70.5,176C 75.5974,172.567 80.9307,169.567 86.5,167C 104.348,160.2 122.348,153.7 140.5,147.5C 143.598,103.589 165.931,74.7561 207.5,61C 266.615,48.0687 326.281,41.2354 386.5,40.5 Z M 141.5,200.5 C 144.571,253.726 152.071,306.393 164,358.5C 143.386,346.779 122.886,334.946 102.5,323C 96.9148,319.332 93.7481,314.165 93,307.5C 91.5078,288.19 91.1744,268.856 92,249.5C 92.1184,241.043 93.1184,232.71 95,224.5C 97.8302,220.007 101.664,216.507 106.5,214C 118.227,209.374 129.893,204.874 141.5,200.5 Z M 656.5,200.5 C 670.546,204.935 684.213,210.435 697.5,217C 703.075,220.98 705.908,226.48 706,233.5C 706.667,257.833 706.667,282.167 706,306.5C 705.028,314.809 700.861,320.976 693.5,325C 673.983,336.013 654.483,347.179 635,358.5C 647.238,306.599 654.405,253.932 656.5,200.5 Z M 323.5,675.5 C 374.168,675.333 424.834,675.5 475.5,676C 478.094,677.339 479.594,679.506 480,682.5C 481.445,690.004 482.945,697.504 484.5,705C 484.355,705.772 484.022,706.439 483.5,707C 427.5,707.667 371.5,707.667 315.5,707C 314.941,706.275 314.608,705.442 314.5,704.5C 316.333,696.168 318.167,687.835 320,679.5C 321.032,677.973 322.199,676.64 323.5,675.5 Z"/></g>
</svg>
