<?xml version="1.0" encoding="UTF-8"?>
<!DOCTYPE svg PUBLIC "-//W3C//DTD SVG 1.1//EN" "http://www.w3.org/Graphics/SVG/1.1/DTD/svg11.dtd">
<svg xmlns="http://www.w3.org/2000/svg" version="1.1" width="800px" height="800px" style="shape-rendering:geometricPrecision; text-rendering:geometricPrecision; image-rendering:optimizeQuality; fill-rule:evenodd; clip-rule:evenodd" xmlns:xlink="http://www.w3.org/1999/xlink">
<g><path style="opacity:0.994" fill="#fefffe" d="M 262.5,24.5 C 355.536,24.0122 448.536,24.5122 541.5,26C 573.07,34.9035 592.237,55.4035 599,87.5C 599.499,91.4862 599.666,95.4862 599.5,99.5C 633.088,93.2896 661.255,102.623 684,127.5C 698.329,148.462 703.496,171.629 699.5,197C 699.333,208.5 699.167,220 699,231.5C 691.097,249.137 678.263,253.971 660.5,246C 655.422,242.263 651.922,237.43 650,231.5C 649.667,211.833 649.333,192.167 649,172.5C 646.581,158.748 638.414,151.248 624.5,150C 616.173,149.5 607.84,149.334 599.5,149.5C 598.445,181.717 583.445,204.884 554.5,219C 548.668,221.277 542.668,222.944 536.5,224C 445.167,224.667 353.833,224.667 262.5,224C 232.011,217.845 211.845,200.012 202,170.5C 200.012,163.639 199.178,156.639 199.5,149.5C 187.714,148.937 176.047,149.771 164.5,152C 156.098,156.302 151.265,163.135 150,172.5C 149.333,348.833 149.333,525.167 150,701.5C 152.419,715.252 160.586,722.752 174.5,724C 324.5,724.667 474.5,724.667 624.5,724C 638.414,722.752 646.581,715.252 649,701.5C 649.333,656.833 649.667,612.167 650,567.5C 657.903,549.863 670.737,545.029 688.5,553C 692.422,556.251 695.588,560.084 698,564.5C 699.153,589.439 699.653,614.439 699.5,639.5C 699.333,663.5 699.167,687.5 699,711.5C 694.141,738.385 679.307,757.552 654.5,769C 648.754,771.55 642.754,773.216 636.5,774C 478.5,774.667 320.5,774.667 162.5,774C 135.632,769.146 116.466,754.313 105,729.5C 102.723,723.668 101.056,717.668 100,711.5C 99.3333,528.5 99.3333,345.5 100,162.5C 104.859,135.615 119.693,116.448 144.5,105C 150.246,102.45 156.246,100.784 162.5,100C 174.829,99.5001 187.162,99.3335 199.5,99.5C 202.05,58.9534 223.05,33.9534 262.5,24.5 Z M 274.5,74.5 C 359.864,74.0161 445.197,74.5161 530.5,76C 540,78.1667 545.833,84 548,93.5C 550,114.167 550,134.833 548,155.5C 544.63,167.191 536.797,173.358 524.5,174C 439.137,174.984 353.803,174.651 268.5,173C 259,170.833 253.167,165 251,155.5C 249.414,136.872 249.081,118.205 250,99.5C 251.344,84.3237 259.511,75.9904 274.5,74.5 Z"/></g>
<g><path style="opacity:0.965" fill="#fefffe" d="M 667.5,299.5 C 681.369,297.185 691.536,302.185 698,314.5C 702.815,331.034 697.315,342.534 681.5,349C 666.086,351.879 655.586,346.046 650,331.5C 647.248,315.996 653.081,305.329 667.5,299.5 Z"/></g>
<g><path style="opacity:0.981" fill="#fefffe" d="M 566.5,324.5 C 579.96,322.317 590.127,326.984 597,338.5C 600.829,348.037 599.829,357.037 594,365.5C 517.617,450.428 441.117,535.261 364.5,620C 355.014,625.596 345.348,625.929 335.5,621C 292,577.5 248.5,534 205,490.5C 198.155,478.446 199.322,467.279 208.5,457C 218.154,449.556 228.487,448.556 239.5,454C 276.306,489.805 312.806,525.972 349,562.5C 418.408,486.429 487.075,409.763 555,332.5C 558.482,329.161 562.315,326.494 566.5,324.5 Z"/></g>
<g><path style="opacity:0.987" fill="#fefffe" d="M 667.5,399.5 C 682.903,397.114 693.403,403.114 699,417.5C 699.667,447.167 699.667,476.833 699,506.5C 691.097,524.137 678.263,528.971 660.5,521C 655.422,517.263 651.922,512.43 650,506.5C 649.333,476.833 649.333,447.167 650,417.5C 653.353,408.982 659.186,402.982 667.5,399.5 Z"/></g>
</svg>
