<?xml version="1.0" encoding="UTF-8"?>
<!DOCTYPE svg PUBLIC "-//W3C//DTD SVG 1.1//EN" "http://www.w3.org/Graphics/SVG/1.1/DTD/svg11.dtd">
<svg xmlns="http://www.w3.org/2000/svg" version="1.1" width="800px" height="800px" style="shape-rendering:geometricPrecision; text-rendering:geometricPrecision; image-rendering:optimizeQuality; fill-rule:evenodd; clip-rule:evenodd" xmlns:xlink="http://www.w3.org/1999/xlink">
<g><path style="opacity:0.984" fill="#fefffe" d="M 124.5,99.5 C 169.835,99.3333 215.168,99.5 260.5,100C 317.658,98.9213 363.991,120.421 399.5,164.5C 435.009,120.421 481.342,98.9213 538.5,100C 583.833,99.3333 629.167,99.3333 674.5,100C 704.213,104.758 723.047,121.591 731,150.5C 732.026,155.785 732.693,161.118 733,166.5C 733.667,299.5 733.667,432.5 733,565.5C 731.142,602.756 711.975,624.923 675.5,632C 623.522,633.292 571.522,633.959 519.5,634C 509.709,635.729 500.709,639.396 492.5,645C 465.671,662.915 438.671,680.582 411.5,698C 401.08,700.725 391.08,699.725 381.5,695C 356.672,678.085 331.672,661.419 306.5,645C 298.291,639.396 289.291,635.729 279.5,634C 230.5,633.667 181.5,633.333 132.5,633C 91.6616,629.495 69.495,607.328 66,566.5C 65.3333,433.167 65.3333,299.833 66,166.5C 66.8239,139.331 78.9906,119.165 102.5,106C 109.685,102.878 117.018,100.711 124.5,99.5 Z M 133.5,166.5 C 177.509,166.25 221.509,166.75 265.5,168C 309.377,168.505 340.21,188.672 358,228.5C 361.158,239.289 363.158,250.289 364,261.5C 365.121,321.99 365.621,382.49 365.5,443C 365.333,496.167 365.167,549.333 365,602.5C 351.291,592.476 336.791,583.642 321.5,576C 302.886,568.589 283.552,565.256 263.5,566C 220.168,565.5 176.835,565.333 133.5,565.5C 133.5,432.5 133.5,299.5 133.5,166.5 Z M 569.5,166.5 C 601.5,166.5 633.5,166.5 665.5,166.5C 665.5,299.5 665.5,432.5 665.5,565.5C 622.165,565.333 578.832,565.5 535.5,566C 506.467,564.924 479.8,572.257 455.5,588C 448.42,592.957 441.253,597.79 434,602.5C 433.333,495.833 433.333,389.167 434,282.5C 433.925,264.174 436.258,246.174 441,228.5C 456.209,192.96 483.042,173.127 521.5,169C 537.652,168.055 553.652,167.222 569.5,166.5 Z"/></g>
</svg>
